<svg width="78" height="24" viewBox="0 0 78 24" fill="none" xmlns="http://www.w3.org/2000/svg">
<path d="M0.128 1.2V18H12.056V14.496H3.944V1.2H0.128ZM12.8537 11.76C12.8537 13.608 13.4057 15.168 14.5337 16.44C15.6617 17.688 17.0777 18.312 18.7577 18.312C20.0537 18.312 21.2057 17.928 22.2137 17.136V18H25.7897V5.52H22.2137V6.36C21.1817 5.592 20.0297 5.208 18.7577 5.208C17.0777 5.208 15.6617 5.832 14.5337 7.08C13.4057 8.328 12.8537 9.888 12.8537 11.76ZM19.3817 8.76C20.1497 8.76 20.7977 9.048 21.3497 9.624C21.9017 10.2 22.1657 10.896 22.1657 11.736C22.1657 13.464 20.9177 14.76 19.3817 14.76C17.8217 14.76 16.5977 13.464 16.5977 11.736C16.5977 10.08 17.8217 8.76 19.3817 8.76ZM27.6158 18H31.2158V10.944C31.2158 9.576 32.1998 8.544 33.5198 8.544C34.8398 8.544 35.7998 9.576 35.7998 10.944V18H39.3998V9.984C39.3998 8.616 38.9438 7.488 38.0078 6.576C37.0958 5.664 35.9678 5.208 34.6238 5.208C33.1838 5.208 32.0558 5.736 31.2158 6.792V5.52H27.6158V18ZM40.8365 11.76C40.8365 13.608 41.3885 15.168 42.5165 16.44C43.6445 17.688 45.0605 18.312 46.7405 18.312C48.0365 18.312 49.1885 17.928 50.1965 17.136V18H53.7725V-1.43051e-06H50.1965V6.36C49.1645 5.592 48.0125 5.208 46.7405 5.208C45.0605 5.208 43.6445 5.832 42.5165 7.08C41.3885 8.328 40.8365 9.888 40.8365 11.76ZM47.3645 8.76C48.1325 8.76 48.7805 9.048 49.3325 9.624C49.8845 10.2 50.1485 10.896 50.1485 11.736C50.1485 13.464 48.9005 14.76 47.3645 14.76C45.8045 14.76 44.5805 13.464 44.5805 11.736C44.5805 10.08 45.8045 8.76 47.3645 8.76ZM59.1986 18V-1.43051e-06H55.5986V18H59.1986ZM64.8156 18.096C64.3596 19.344 63.3756 19.968 61.8156 19.968H61.3596V23.4H61.7916C64.8636 23.4 66.6636 22.176 67.8156 19.296L73.1196 5.52H69.3996L66.5916 13.224L63.8796 5.52H60.1596L64.8876 17.904L64.8156 18.096Z" fill="white"/>
<path d="M75.7458 14.232C74.5938 14.232 73.7298 15.096 73.7298 16.272C73.7298 17.448 74.5938 18.312 75.7458 18.312C76.9218 18.312 77.8098 17.448 77.8098 16.272C77.8098 15.096 76.9218 14.232 75.7458 14.232Z" fill="#F18B62"/>
</svg>
